HIERARCHY
ROOT Bip001_Pelvis
{
  OFFSET 7.937 94.8971 -8.5489
  CHANNELS 6 Xposition Yposition Zposition Zrotation Xrotation Yrotation
  JOINT Bip001_Spine
  {
    OFFSET 1.44608e-005 10.4157 -0.0118244
    CHANNELS 3 Zrotation Xrotation Yrotation
    JOINT Bip001_L_Thigh
    {
      OFFSET 11.2582 -10.4157 0.0118432
      CHANNELS 3 Zrotation Xrotation Yrotation
      JOINT Bip001_L_Calf
      {
        OFFSET -0.720717 -44.8687 0.366937
        CHANNELS 3 Zrotation Xrotation Yrotation
        JOINT Bip001_L_Foot
        {
          OFFSET -0.664439 -41.3745 -3.62995
          CHANNELS 3 Zrotation Xrotation Yrotation
          JOINT Bip001_L_Toe0
          {
            OFFSET 0.0541047 -10.4146 13.4033
            CHANNELS 3 Zrotation Xrotation Yrotation
            End Site
            {
              OFFSET -1.04503e-005 0 7.70137
            }
          }
        }
      }
    }
    JOINT Bip001_R_Thigh
    {
      OFFSET -11.2582 -10.4156 0.0118122
      CHANNELS 3 Zrotation Xrotation Yrotation
      JOINT Bip001_R_Calf
      {
        OFFSET 0.72059 -44.8687 0.36676
        CHANNELS 3 Zrotation Xrotation Yrotation
        JOINT Bip001_R_Foot
        {
          OFFSET 0.664321 -41.3745 -3.62979
          CHANNELS 3 Zrotation Xrotation Yrotation
          JOINT Bip001_R_Toe0
          {
            OFFSET -0.05417 -10.4146 13.4033
            CHANNELS 3 Zrotation Xrotation Yrotation
            End Site
            {
              OFFSET -1.04873e-005 0 7.70137
            }
          }
        }
      }
    }
    JOINT Bip001_Spine1
    {
      OFFSET 1.90638e-005 14.8539 1.10727
      CHANNELS 3 Zrotation Xrotation Yrotation
      JOINT Bip001_Spine2
      {
        OFFSET 2.28934e-005 14.7848 -1.7233
        CHANNELS 3 Zrotation Xrotation Yrotation
        JOINT Bip001_Neck
        {
          OFFSET 2.24514e-005 15.6905 -0.498826
          CHANNELS 3 Zrotation Xrotation Yrotation
          JOINT Bip001_L_Clavicle
          {
            OFFSET 6.17691 -0.000591152 0.00852867
            CHANNELS 3 Zrotation Xrotation Yrotation
            JOINT Bip001_L_UpperArm
            {
              OFFSET 11.773 -0.0611878 0.00197697
              CHANNELS 3 Zrotation Xrotation Yrotation
              JOINT Bip001_L_Forearm
              {
                OFFSET 26.4515 0.0817568 -2.19579
                CHANNELS 3 Zrotation Xrotation Yrotation
                JOINT Bip001_L_Hand
                {
                  OFFSET 32.8677 0.156744 1.67112
                  CHANNELS 3 Zrotation Xrotation Yrotation
                  JOINT Bip001_L_Finger0
                  {
                    OFFSET 6.16268 -2.25226 6.01674
                    CHANNELS 3 Zrotation Xrotation Yrotation
                    End Site
                    {
                      OFFSET 4.30499 -1.46662 0.618148
                    }
                  }
                  JOINT Bip001_L_Finger1
                  {
                    OFFSET 11.2957 -0.718374 -0.201963
                    CHANNELS 3 Zrotation Xrotation Yrotation
                    End Site
                    {
                      OFFSET 6.31952 -0.405163 -0.0802303
                    }
                  }
                }
              }
            }
          }
          JOINT Bip001_R_Clavicle
          {
            OFFSET -6.17691 -0.000574027 0.00851165
            CHANNELS 3 Zrotation Xrotation Yrotation
            JOINT Bip001_R_UpperArm
            {
              OFFSET -11.773 -0.0611516 0.00194365
              CHANNELS 3 Zrotation Xrotation Yrotation
              JOINT Bip001_R_Forearm
              {
                OFFSET -26.4514 0.0822334 -2.19736
                CHANNELS 3 Zrotation Xrotation Yrotation
                JOINT Bip001_R_Hand
                {
                  OFFSET -32.8677 0.156817 1.67144
                  CHANNELS 3 Zrotation Xrotation Yrotation
                  JOINT Bip001_R_Finger0
                  {
                    OFFSET -6.1627 -2.25224 6.0167
                    CHANNELS 3 Zrotation Xrotation Yrotation
                    End Site
                    {
                      OFFSET -4.30499 -1.46662 0.618134
                    }
                  }
                  JOINT Bip001_R_Finger1
                  {
                    OFFSET -11.2958 -0.718344 -0.201994
                    CHANNELS 3 Zrotation Xrotation Yrotation
                    End Site
                    {
                      OFFSET -6.31952 -0.405146 -0.0802475
                    }
                  }
                }
              }
            }
          }
          JOINT Bip001_Head
          {
            OFFSET 1.11782e-005 11.4912 2.09908
            CHANNELS 3 Zrotation Xrotation Yrotation
            End Site
            {
              OFFSET 2.95144e-005 21.2823 -2.83069e-005
            }
          }
        }
      }
    }
  }
}
MOTION
Frames:	10
Frame Time:	0.04
9.08108 95.1432 -8.6935 0.402221 -4.71324 -0.296786 0.0639058 0.926543 -0.548474 4.16887 -5.04171 9.33532 -0.921775 16.9559 -1.86244 -2.01797 -7.35372 2.11594 0.665162 -9.76842 0.315989 -9.26653 -3.95959 -0.095352 -0.513614 16.828 3.44932 2.21834 -8.73472 -7.7183 -0.78824 -11.4605 -0.191118 0.0559617 1.8529 -1.09825 0.0347512 1.8529 -1.09897 0.586715 -4.09714 -0.400602 -27.5313 9.99721 -13.5052 -46.912 40.5884 6.19894 15.0786 -0.473921 -32.8103 0.932381 -0.0268466 -3.85558 6.36111e-015 1.59028e-015 -0 3.18055e-015 7.95139e-015 -1.59028e-015 31.2082 9.33702 9.16345 56.7886 20.5614 -24.161 32.646 -44.8992 64.953 3.61411 -2.61454 -19.6045 7.95139e-016 -3.18055e-015 -0 7.95139e-016 -3.18056e-015 -0 -2.10807 -2.09198 0.196976 
9.40976 95.0327 -8.61126 0.5091 -4.65074 -0.799551 0.0697118 0.900364 -0.769272 3.85845 -5.18822 10.0699 -0.735195 17.5175 -2.03467 -1.85786 -7.83549 2.18859 0.655267 -9.7511 0.413717 -9.4684 -4.44751 0.187607 -0.835118 17.4752 3.92271 2.29854 -9.01714 -7.57294 -0.582065 -11.4869 -0.289076 0.0710157 1.80763 -1.54081 0.0701972 1.80759 -1.54084 1.13525 -3.80346 -0.033346 -27.3063 9.77357 -13.9691 -48.9628 40.3087 7.47294 15.3712 0.120431 -32.9914 0.4695 -0.0479049 -4.35239 -3.18055e-015 0 -0 4.41391e-032 -1.59028e-015 1.59028e-015 30.2027 8.13956 7.14391 53.8392 12.0651 -23.7443 33.0913 -39.3513 69.0777 3.25804 -2.71462 -18.367 8.82781e-032 -3.18055e-015 1.59028e-015 1.59028e-015 0 -0 -2.91311 -2.40812 0.859028 
9.67163 94.9337 -8.56439 0.505729 -4.56218 -1.16199 0.149501 0.887768 -1.07085 3.66318 -5.43116 9.94894 -0.884347 18.0775 -2.17355 -1.67279 -8.27616 2.98907 0.75864 -9.71195 0.590223 -9.64143 -4.89019 0.239079 -1.12434 17.9628 3.99165 2.50442 -9.18678 -6.97369 -0.457527 -11.5305 -0.268096 0.244833 1.77323 -2.14538 0.244834 1.77326 -2.14538 1.02137 -3.67151 0.621633 -26.7647 9.80254 -14.3303 -50.9398 40.8471 9.14026 15.218 -0.0118729 -33.1093 -0.159179 -0.137653 -4.53362 9.54166e-015 -4.77083e-015 -0 6.36111e-015 -1.59028e-015 2.38542e-015 29.6783 7.26921 5.6905 49.634 -0.135419 -23.7325 25.3097 -28.5208 68.9411 1.43787 -2.44253 -18.377 -1.59028e-015 -3.18055e-015 -6.36111e-015 -1.59028e-015 -3.18056e-015 -6.36111e-015 -3.20443 -2.64261 1.5229 
9.93756 94.8537 -8.35358 0.560758 -4.57585 -1.57977 0.197316 0.854226 -1.28146 3.31616 -5.32638 10.3023 -0.647565 18.3898 -2.39317 -1.62973 -8.72804 3.19354 0.806406 -9.65844 0.850668 -9.93446 -5.07366 0.0204752 -1.36168 18.3676 3.88991 2.77218 -9.3916 -6.03506 -0.362699 -11.5856 -0.149666 0.362685 1.70438 -2.56716 0.363545 1.7044 -2.56718 0.793102 -3.41342 1.11188 -26.3542 9.6777 -14.6002 -52.8758 42.1178 11.2312 15.21 -0.013556 -32.9615 -1.36675 -0.243774 -4.66187 0 4.77083e-015 -0 -3.18055e-015 6.36111e-015 -7.95139e-016 29.2423 6.42584 4.53615 45.5988 -10.8611 -24.5444 15.2063 -18.3954 70.6339 1.58586 -1.82728 -16.6802 1.59028e-015 9.54166e-015 -3.18055e-015 -1.59028e-015 9.54167e-015 -3.18055e-015 -3.29646 -2.79199 1.95894 
10.1821 94.7204 -8.10636 0.581087 -4.68697 -1.85338 0.194842 0.817586 -1.37011 3.18484 -5.31933 9.52478 -0.963791 19.0995 -1.98177 -1.37384 -9.36383 3.81721 0.834945 -9.62808 1.03167 -10.0781 -5.17224 -0.232898 -1.64583 18.988 4.34067 2.86877 -9.79831 -5.70227 -0.229685 -11.6197 -0.193283 0.339007 1.63112 -2.74251 0.339009 1.63112 -2.74252 1.07322 -3.24555 1.16345 -25.8284 9.52025 -15.1085 -55.6867 42.9949 13.9535 16.1778 1.40786 -32.5599 -2.49128 -0.363998 -4.6827 -6.36111e-015 -1.59028e-015 -0 -6.36111e-015 -1.59028e-015 -3.97569e-016 29.2238 5.97279 3.71493 38.7744 -23.1882 -26.5411 6.67627 -7.69456 76.1342 0.235037 0.403279 -15.6276 9.54166e-015 -3.18055e-015 6.36111e-015 9.54166e-015 -3.18056e-015 -3.18055e-015 -3.77669 -2.73544 2.18332 
10.3301 94.5807 -7.79996 0.494226 -4.74759 -1.86685 0.173585 0.762159 -1.41583 3.27724 -5.39276 9.47641 -0.99829 19.9714 -1.73545 -1.34219 -10.0654 3.54284 0.863027 -9.60142 1.15981 -10.0401 -5.13505 0.150335 -1.61378 19.552 4.30286 2.72442 -10.2506 -5.88374 -0.0362554 -11.6488 -0.274282 0.334119 1.52018 -2.83456 0.334026 1.52018 -2.83461 1.51852 -3.44753 0.959701 -25.3691 9.53436 -15.1609 -58.6101 43.437 16.7546 17.0088 2.58915 -32.3794 -3.37632 -0.364298 -4.198 -2.20695e-032 7.95139e-016 1.59028e-015 -4.41391e-032 1.59028e-015 1.59028e-015 29.4603 6.02211 3.00971 27.8885 -36.0843 -30.2652 3.1701 3.06351 84.942 -4.61748 2.57992 -14.7211 9.54166e-015 3.18055e-015 3.18055e-015 9.54166e-015 6.36111e-015 3.18055e-015 -4.62679 -2.19893 2.29141 
10.473 94.3485 -7.5441 0.660957 -4.52399 -1.5754 0.141283 0.637962 -1.46414 3.10492 -5.90167 9.05574 -1.04724 21.0722 -2.31794 -1.09739 -10.8632 4.13023 0.919695 -9.53295 1.39255 -10.1807 -5.6262 0.0160554 -1.84223 20.8702 4.50092 2.58099 -11.1033 -5.97864 0.224364 -11.6817 -0.409947 0.294272 1.27216 -2.93017 0.294274 1.27217 -2.93018 1.5111 -3.47829 0.797317 -25.1057 9.4073 -14.9018 -60.6723 43.3712 19.2286 18.08 4.50623 -32.3457 -4.20122 -0.329588 -3.68282 3.18055e-015 3.97569e-015 -1.59028e-015 1.65522e-032 2.38542e-015 -3.97569e-016 29.3236 5.93515 2.63595 19.6422 -43.1624 -31.8089 0.547085 6.30848 94.0354 -9.22006 4.04835 -13.145 3.18055e-015 -9.54166e-015 4.77083e-015 -3.18055e-015 -9.54167e-015 4.77083e-015 -4.84736 -1.9683 2.18414 
10.4517 93.9794 -7.35399 0.762947 -4.18927 -0.999643 0.0382258 0.49821 -1.44809 3.18409 -7.0062 8.70829 -0.894184 23.0392 -3.6175 -0.885327 -11.9673 4.93033 0.985624 -9.45613 1.65977 -10.0314 -6.49372 -0.567844 -2.327 22.9549 4.82316 2.32395 -12.4636 -6.03945 0.557451 -11.7223 -0.582104 0.149474 0.994529 -2.89596 0.149474 0.99453 -2.89596 1.95276 -3.40677 0.405591 -25.4629 9.11815 -14.4667 -61.8432 41.9512 21.5563 19.3685 6.09428 -32.8824 -5.76921 -0.244702 -3.85007 -3.18055e-015 4.77083e-015 -5.96354e-016 1.32417e-031 4.77083e-015 -1.59028e-015 27.8963 5.76884 2.35916 13.3824 -49.4455 -30.5398 -5.36257 6.68855 100.882 -13.2804 5.00779 -9.89805 -3.18055e-015 9.54166e-015 3.18055e-015 -3.18055e-015 9.54167e-015 -0 -5.0947 -1.94794 1.97298 
10.2812 93.6649 -7.17126 0.84314 -4.03762 -0.0836468 -0.169879 0.439872 -1.33982 3.52969 -7.88875 7.64934 -1.14683 24.6443 -3.89894 -0.765863 -12.8118 5.14824 1.03899 -9.40866 1.82063 -9.8423 -7.00178 -0.80829 -2.15604 24.7702 4.4801 1.77696 -13.6715 -6.50312 0.866065 -11.7864 -0.647677 -0.210017 0.88247 -2.67742 -0.210016 0.882366 -2.67742 2.80332 -3.27868 -0.247405 -25.8917 8.70271 -14.1969 -62.3874 41.2736 23.1662 19.7544 6.5613 -32.8068 -6.0752 -0.195825 -3.38702 2.64834e-031 6.36111e-015 -2.38542e-015 1.32417e-031 4.77083e-015 -1.59028e-015 26.4005 5.6779 2.31774 9.28964 -55.0891 -25.0452 -9.39034 5.50575 104.342 -17.1516 5.13415 -7.92963 3.18055e-015 3.18055e-015 5.56597e-015 -0 0 6.36111e-015 -5.26797 -2.25484 1.58996 
9.92863 93.3437 -7.01528 1.11667 -3.96435 1.29933 -0.406357 0.45119 -1.25296 3.80387 -8.75315 7.04967 -1.11586 26.0415 -4.65321 -0.82228 -13.4353 4.9177 1.03963 -9.39927 1.90826 -9.71166 -7.44933 -0.682118 -1.62548 26.7559 4.33025 0.71691 -15.0602 -7.97595 1.271 -11.8061 -0.912867 -0.60031 0.908932 -2.50263 -0.600311 0.908933 -2.50263 3.00455 -3.57664 -0.879067 -26.0452 8.68767 -13.5751 -62.0404 41.0861 23.7595 19.1412 6.0395 -32.0126 -5.25654 -0.130685 -3.10189 6.36111e-015 0 -1.19271e-015 6.36111e-015 0 -1.19271e-015 24.4153 6.14985 2.95696 10.2105 -61.2676 -15.0434 -14.1 3.79602 104.906 -18.4747 4.88424 -6.31538 -1.59028e-015 3.18055e-015 4.77083e-015 -4.77083e-015 3.18056e-015 8.74652e-015 -5.39201 -1.96208 1.05772 
